<mxfile host="app.diagrams.net" modified="2024-05-17T08:15:32.140Z" agent="Mozilla/5.0 (Windows NT 10.0; Win64; x64) AppleWebKit/537.36 (KHTML, like Gecko) Chrome/124.0.0.0 Safari/537.36 Edg/124.0.0.0" etag="jyQ6tf7JCFyN0M9a0wvv" version="24.2.5" type="device">
  <diagram name="Страница 1" id="pAQKBAC_LHhq4Mj_fTdl">
    <mxGraphModel dx="2974" dy="755" grid="0" gridSize="10" guides="1" tooltips="1" connect="1" arrows="1" fold="1" page="1" pageScale="1" pageWidth="1654" pageHeight="2336" background="none" math="0" shadow="0">
      <root>
        <mxCell id="0" />
        <mxCell id="1" parent="0" />
        <mxCell id="KasnEP_K7CJWhfXOWEMs-1" value="Тестирование в&lt;br&gt;автошколе" style="rounded=0;whiteSpace=wrap;html=1;" parent="1" vertex="1">
          <mxGeometry x="680" y="397" width="220" height="160" as="geometry" />
        </mxCell>
        <mxCell id="KasnEP_K7CJWhfXOWEMs-2" value="" style="endArrow=classic;html=1;rounded=0;entryX=0;entryY=0.5;entryDx=0;entryDy=0;" parent="1" target="KasnEP_K7CJWhfXOWEMs-1" edge="1">
          <mxGeometry width="50" height="50" relative="1" as="geometry">
            <mxPoint x="550" y="477" as="sourcePoint" />
            <mxPoint x="680" y="476.9999999999999" as="targetPoint" />
          </mxGeometry>
        </mxCell>
        <mxCell id="KasnEP_K7CJWhfXOWEMs-3" value="Категории" style="text;html=1;align=center;verticalAlign=middle;resizable=0;points=[];autosize=1;strokeColor=none;fillColor=none;" parent="1" vertex="1">
          <mxGeometry x="550" y="447" width="80" height="30" as="geometry" />
        </mxCell>
        <mxCell id="KasnEP_K7CJWhfXOWEMs-4" value="" style="endArrow=classic;html=1;rounded=0;entryX=0.5;entryY=1;entryDx=0;entryDy=0;" parent="1" target="KasnEP_K7CJWhfXOWEMs-1" edge="1">
          <mxGeometry width="50" height="50" relative="1" as="geometry">
            <mxPoint x="790" y="630" as="sourcePoint" />
            <mxPoint x="795" y="560" as="targetPoint" />
          </mxGeometry>
        </mxCell>
        <mxCell id="KasnEP_K7CJWhfXOWEMs-5" value="Пользователь" style="text;html=1;align=center;verticalAlign=middle;resizable=0;points=[];autosize=1;strokeColor=none;fillColor=none;" parent="1" vertex="1">
          <mxGeometry x="740" y="638" width="100" height="30" as="geometry" />
        </mxCell>
        <mxCell id="j-Frhi-E09a5lXZqFMOe-3" value="" style="endArrow=classic;html=1;rounded=0;entryX=0.5;entryY=0;entryDx=0;entryDy=0;" parent="1" target="KasnEP_K7CJWhfXOWEMs-1" edge="1">
          <mxGeometry width="50" height="50" relative="1" as="geometry">
            <mxPoint x="790" y="320" as="sourcePoint" />
            <mxPoint x="781" y="217" as="targetPoint" />
          </mxGeometry>
        </mxCell>
        <mxCell id="j-Frhi-E09a5lXZqFMOe-4" value="Постановление министерства транспорта и&lt;div&gt;коммуникаций Республики Беларусь&lt;/div&gt;" style="text;html=1;align=center;verticalAlign=middle;resizable=0;points=[];autosize=1;strokeColor=none;fillColor=none;" parent="1" vertex="1">
          <mxGeometry x="659" y="280" width="262" height="41" as="geometry" />
        </mxCell>
        <mxCell id="j-Frhi-E09a5lXZqFMOe-5" value="" style="endArrow=classic;html=1;rounded=0;exitX=1;exitY=0.5;exitDx=0;exitDy=0;" parent="1" source="KasnEP_K7CJWhfXOWEMs-1" edge="1">
          <mxGeometry width="50" height="50" relative="1" as="geometry">
            <mxPoint x="910" y="476.17" as="sourcePoint" />
            <mxPoint x="1040" y="476" as="targetPoint" />
          </mxGeometry>
        </mxCell>
        <mxCell id="j-Frhi-E09a5lXZqFMOe-6" value="Результат тестирования" style="text;html=1;align=center;verticalAlign=middle;resizable=0;points=[];autosize=1;strokeColor=none;fillColor=none;" parent="1" vertex="1">
          <mxGeometry x="895" y="449" width="152" height="26" as="geometry" />
        </mxCell>
        <mxCell id="j-Frhi-E09a5lXZqFMOe-9" value="Выбрать категорию" style="whiteSpace=wrap;html=1;" parent="1" vertex="1">
          <mxGeometry x="517" y="857" width="120" height="60" as="geometry" />
        </mxCell>
        <mxCell id="j-Frhi-E09a5lXZqFMOe-10" value="" style="endArrow=classic;html=1;rounded=0;entryX=0;entryY=0.5;entryDx=0;entryDy=0;" parent="1" target="j-Frhi-E09a5lXZqFMOe-9" edge="1">
          <mxGeometry width="50" height="50" relative="1" as="geometry">
            <mxPoint x="448" y="887" as="sourcePoint" />
            <mxPoint x="448" y="877" as="targetPoint" />
          </mxGeometry>
        </mxCell>
        <mxCell id="j-Frhi-E09a5lXZqFMOe-11" value="Категории" style="text;html=1;align=center;verticalAlign=middle;resizable=0;points=[];autosize=1;strokeColor=none;fillColor=none;" parent="1" vertex="1">
          <mxGeometry x="437" y="857" width="80" height="30" as="geometry" />
        </mxCell>
        <mxCell id="j-Frhi-E09a5lXZqFMOe-12" value="" style="endArrow=classic;html=1;rounded=0;exitX=1;exitY=0.5;exitDx=0;exitDy=0;" parent="1" source="j-Frhi-E09a5lXZqFMOe-9" edge="1">
          <mxGeometry width="50" height="50" relative="1" as="geometry">
            <mxPoint x="668" y="887" as="sourcePoint" />
            <mxPoint x="698" y="947" as="targetPoint" />
            <Array as="points">
              <mxPoint x="668" y="887" />
              <mxPoint x="668" y="947" />
            </Array>
          </mxGeometry>
        </mxCell>
        <mxCell id="j-Frhi-E09a5lXZqFMOe-13" value="Пройти тест" style="whiteSpace=wrap;html=1;" parent="1" vertex="1">
          <mxGeometry x="698" y="917" width="120" height="60" as="geometry" />
        </mxCell>
        <mxCell id="j-Frhi-E09a5lXZqFMOe-18" value="" style="endArrow=classic;html=1;rounded=0;exitX=1;exitY=0.5;exitDx=0;exitDy=0;" parent="1" edge="1">
          <mxGeometry width="50" height="50" relative="1" as="geometry">
            <mxPoint x="818" y="947" as="sourcePoint" />
            <mxPoint x="879" y="1007" as="targetPoint" />
            <Array as="points">
              <mxPoint x="849" y="947" />
              <mxPoint x="849" y="1007" />
            </Array>
          </mxGeometry>
        </mxCell>
        <mxCell id="j-Frhi-E09a5lXZqFMOe-19" value="Сдать тест" style="whiteSpace=wrap;html=1;" parent="1" vertex="1">
          <mxGeometry x="878" y="977" width="120" height="60" as="geometry" />
        </mxCell>
        <mxCell id="j-Frhi-E09a5lXZqFMOe-22" value="Выбранная&lt;div&gt;&amp;nbsp;категория&lt;/div&gt;" style="text;html=1;align=center;verticalAlign=middle;resizable=0;points=[];autosize=1;strokeColor=none;fillColor=none;" parent="1" vertex="1">
          <mxGeometry x="630" y="852" width="90" height="40" as="geometry" />
        </mxCell>
        <mxCell id="j-Frhi-E09a5lXZqFMOe-23" value="Пройденный&amp;nbsp;&lt;div&gt;тест&lt;/div&gt;" style="text;html=1;align=center;verticalAlign=middle;resizable=0;points=[];autosize=1;strokeColor=none;fillColor=none;" parent="1" vertex="1">
          <mxGeometry x="818" y="912" width="100" height="40" as="geometry" />
        </mxCell>
        <mxCell id="j-Frhi-E09a5lXZqFMOe-25" value="" style="endArrow=classic;html=1;rounded=0;" parent="1" edge="1">
          <mxGeometry width="50" height="50" relative="1" as="geometry">
            <mxPoint x="1000" y="1006.5799999999999" as="sourcePoint" />
            <mxPoint x="1130" y="1007" as="targetPoint" />
          </mxGeometry>
        </mxCell>
        <mxCell id="j-Frhi-E09a5lXZqFMOe-26" value="Результат тестирования" style="text;html=1;align=center;verticalAlign=middle;resizable=0;points=[];autosize=1;strokeColor=none;fillColor=none;" parent="1" vertex="1">
          <mxGeometry x="992" y="977" width="152" height="26" as="geometry" />
        </mxCell>
        <mxCell id="j-Frhi-E09a5lXZqFMOe-27" value="" style="endArrow=classic;html=1;rounded=0;entryX=0.75;entryY=1;entryDx=0;entryDy=0;exitX=0.5;exitY=1;exitDx=0;exitDy=0;startArrow=classic;startFill=1;" parent="1" source="j-Frhi-E09a5lXZqFMOe-19" edge="1">
          <mxGeometry width="50" height="50" relative="1" as="geometry">
            <mxPoint x="790" y="1137" as="sourcePoint" />
            <mxPoint x="570" y="917" as="targetPoint" />
            <Array as="points">
              <mxPoint x="940" y="1140" />
              <mxPoint x="570" y="1137" />
            </Array>
          </mxGeometry>
        </mxCell>
        <mxCell id="j-Frhi-E09a5lXZqFMOe-31" value="Пользователь" style="text;html=1;align=center;verticalAlign=middle;resizable=0;points=[];autosize=1;strokeColor=none;fillColor=none;" parent="1" vertex="1">
          <mxGeometry x="708" y="1153" width="100" height="30" as="geometry" />
        </mxCell>
        <mxCell id="j-Frhi-E09a5lXZqFMOe-32" value="" style="endArrow=classic;html=1;rounded=0;entryX=0.428;entryY=-0.009;entryDx=0;entryDy=0;entryPerimeter=0;exitX=0.5;exitY=0;exitDx=0;exitDy=0;startArrow=classic;startFill=1;" parent="1" source="j-Frhi-E09a5lXZqFMOe-19" target="j-Frhi-E09a5lXZqFMOe-9" edge="1">
          <mxGeometry width="50" height="50" relative="1" as="geometry">
            <mxPoint x="1130" y="817" as="sourcePoint" />
            <mxPoint x="564" y="837" as="targetPoint" />
            <Array as="points">
              <mxPoint x="940" y="817" />
              <mxPoint x="568" y="817" />
            </Array>
          </mxGeometry>
        </mxCell>
        <mxCell id="j-Frhi-E09a5lXZqFMOe-34" value="" style="endArrow=classic;html=1;rounded=0;entryX=0.5;entryY=0;entryDx=0;entryDy=0;" parent="1" target="j-Frhi-E09a5lXZqFMOe-13" edge="1">
          <mxGeometry width="50" height="50" relative="1" as="geometry">
            <mxPoint x="760" y="817" as="sourcePoint" />
            <mxPoint x="840" y="727" as="targetPoint" />
          </mxGeometry>
        </mxCell>
        <mxCell id="j-Frhi-E09a5lXZqFMOe-36" value="Постановление министерства транспорта и&lt;div&gt;коммуникаций Республики Белапусь&lt;/div&gt;" style="text;html=1;align=center;verticalAlign=middle;resizable=0;points=[];autosize=1;strokeColor=none;fillColor=none;" parent="1" vertex="1">
          <mxGeometry x="625" y="767" width="270" height="40" as="geometry" />
        </mxCell>
        <mxCell id="j-Frhi-E09a5lXZqFMOe-37" value="1.1" style="text;html=1;align=center;verticalAlign=middle;resizable=0;points=[];autosize=1;strokeColor=none;fillColor=none;" parent="1" vertex="1">
          <mxGeometry x="600" y="897" width="40" height="30" as="geometry" />
        </mxCell>
        <mxCell id="j-Frhi-E09a5lXZqFMOe-38" value="1.2" style="text;html=1;align=center;verticalAlign=middle;resizable=0;points=[];autosize=1;strokeColor=none;fillColor=none;" parent="1" vertex="1">
          <mxGeometry x="785" y="957" width="40" height="30" as="geometry" />
        </mxCell>
        <mxCell id="j-Frhi-E09a5lXZqFMOe-39" value="1.3" style="text;html=1;align=center;verticalAlign=middle;resizable=0;points=[];autosize=1;strokeColor=none;fillColor=none;" parent="1" vertex="1">
          <mxGeometry x="960" y="1017" width="40" height="30" as="geometry" />
        </mxCell>
        <mxCell id="j-Frhi-E09a5lXZqFMOe-45" value="D1" style="swimlane;whiteSpace=wrap;html=1;direction=north;" parent="1" vertex="1">
          <mxGeometry x="1930" y="465" width="140" height="50" as="geometry">
            <mxRectangle x="970" y="440" width="60" height="30" as="alternateBounds" />
          </mxGeometry>
        </mxCell>
        <mxCell id="j-Frhi-E09a5lXZqFMOe-46" value="Категории" style="text;html=1;align=center;verticalAlign=middle;resizable=0;points=[];autosize=1;strokeColor=none;fillColor=none;" parent="j-Frhi-E09a5lXZqFMOe-45" vertex="1">
          <mxGeometry x="30" y="10" width="80" height="30" as="geometry" />
        </mxCell>
        <mxCell id="j-Frhi-E09a5lXZqFMOe-47" value="&lt;div&gt;Пользователь&lt;/div&gt;&lt;div&gt;&lt;br&gt;&lt;/div&gt;&lt;div&gt;&lt;br&gt;&lt;/div&gt;&lt;div&gt;&lt;br&gt;&lt;/div&gt;&lt;div&gt;&lt;br&gt;&lt;/div&gt;&lt;div&gt;&lt;br&gt;&lt;/div&gt;&lt;div&gt;&lt;br&gt;&lt;/div&gt;" style="html=1;shape=mxgraph.basic.isocube;isoAngle=15;" parent="1" vertex="1">
          <mxGeometry x="1660" y="560" width="130" height="150" as="geometry" />
        </mxCell>
        <mxCell id="j-Frhi-E09a5lXZqFMOe-49" value="" style="verticalLabelPosition=bottom;verticalAlign=top;html=1;shape=mxgraph.basic.smiley" parent="1" vertex="1">
          <mxGeometry x="780" y="30" width="100" height="100" as="geometry" />
        </mxCell>
        <mxCell id="j-Frhi-E09a5lXZqFMOe-50" value="" style="endArrow=classic;html=1;rounded=0;entryX=-0.009;entryY=0.779;entryDx=0;entryDy=0;entryPerimeter=0;exitX=1;exitY=0.5;exitDx=0;exitDy=0;exitPerimeter=0;" parent="1" source="j-Frhi-E09a5lXZqFMOe-47" target="j-Frhi-E09a5lXZqFMOe-53" edge="1">
          <mxGeometry width="50" height="50" relative="1" as="geometry">
            <mxPoint x="1830" y="635" as="sourcePoint" />
            <mxPoint x="1940" y="635" as="targetPoint" />
          </mxGeometry>
        </mxCell>
        <mxCell id="j-Frhi-E09a5lXZqFMOe-51" value="Перейти на&amp;nbsp;&lt;div&gt;форму для выбора&amp;nbsp;&lt;/div&gt;&lt;div&gt;категорий&lt;/div&gt;" style="text;html=1;align=center;verticalAlign=middle;resizable=0;points=[];autosize=1;strokeColor=none;fillColor=none;" parent="1" vertex="1">
          <mxGeometry x="1790" y="578" width="130" height="60" as="geometry" />
        </mxCell>
        <mxCell id="j-Frhi-E09a5lXZqFMOe-52" value="1.1" style="swimlane;fontStyle=1;align=center;verticalAlign=top;childLayout=stackLayout;horizontal=1;startSize=26;horizontalStack=0;resizeParent=1;resizeParentMax=0;resizeLast=0;collapsible=1;marginBottom=0;whiteSpace=wrap;html=1;" parent="1" vertex="1">
          <mxGeometry x="1920" y="589" width="160" height="86" as="geometry" />
        </mxCell>
        <mxCell id="j-Frhi-E09a5lXZqFMOe-53" value="Выбрать категорию" style="text;strokeColor=none;fillColor=none;align=left;verticalAlign=top;spacingLeft=4;spacingRight=4;overflow=hidden;rotatable=0;points=[[0,0.5],[1,0.5]];portConstraint=eastwest;whiteSpace=wrap;html=1;" parent="j-Frhi-E09a5lXZqFMOe-52" vertex="1">
          <mxGeometry y="26" width="160" height="26" as="geometry" />
        </mxCell>
        <mxCell id="j-Frhi-E09a5lXZqFMOe-54" value="" style="line;strokeWidth=1;fillColor=none;align=left;verticalAlign=middle;spacingTop=-1;spacingLeft=3;spacingRight=3;rotatable=0;labelPosition=right;points=[];portConstraint=eastwest;strokeColor=inherit;" parent="j-Frhi-E09a5lXZqFMOe-52" vertex="1">
          <mxGeometry y="52" width="160" height="8" as="geometry" />
        </mxCell>
        <mxCell id="j-Frhi-E09a5lXZqFMOe-55" value="Пользователь" style="text;strokeColor=none;fillColor=none;align=left;verticalAlign=top;spacingLeft=4;spacingRight=4;overflow=hidden;rotatable=0;points=[[0,0.5],[1,0.5]];portConstraint=eastwest;whiteSpace=wrap;html=1;" parent="j-Frhi-E09a5lXZqFMOe-52" vertex="1">
          <mxGeometry y="60" width="160" height="26" as="geometry" />
        </mxCell>
        <mxCell id="j-Frhi-E09a5lXZqFMOe-57" value="" style="endArrow=classic;html=1;rounded=0;entryX=0.5;entryY=0;entryDx=0;entryDy=0;exitX=0;exitY=0.5;exitDx=0;exitDy=0;" parent="1" source="j-Frhi-E09a5lXZqFMOe-45" target="j-Frhi-E09a5lXZqFMOe-52" edge="1">
          <mxGeometry width="50" height="50" relative="1" as="geometry">
            <mxPoint x="1770" y="455" as="sourcePoint" />
            <mxPoint x="1820" y="405" as="targetPoint" />
          </mxGeometry>
        </mxCell>
        <mxCell id="j-Frhi-E09a5lXZqFMOe-58" value="Категории" style="text;html=1;align=center;verticalAlign=middle;resizable=0;points=[];autosize=1;strokeColor=none;fillColor=none;" parent="1" vertex="1">
          <mxGeometry x="1930" y="520" width="80" height="30" as="geometry" />
        </mxCell>
        <mxCell id="j-Frhi-E09a5lXZqFMOe-59" value="D2" style="swimlane;whiteSpace=wrap;html=1;direction=north;startSize=23;" parent="1" vertex="1">
          <mxGeometry x="2180" y="465" width="140" height="50" as="geometry">
            <mxRectangle x="970" y="440" width="60" height="30" as="alternateBounds" />
          </mxGeometry>
        </mxCell>
        <mxCell id="j-Frhi-E09a5lXZqFMOe-60" value="Тесты" style="text;html=1;align=center;verticalAlign=middle;resizable=0;points=[];autosize=1;strokeColor=none;fillColor=none;" parent="j-Frhi-E09a5lXZqFMOe-59" vertex="1">
          <mxGeometry x="40" y="10" width="60" height="30" as="geometry" />
        </mxCell>
        <mxCell id="j-Frhi-E09a5lXZqFMOe-61" value="" style="endArrow=classic;html=1;rounded=0;" parent="1" edge="1">
          <mxGeometry width="50" height="50" relative="1" as="geometry">
            <mxPoint x="2080" y="635.36" as="sourcePoint" />
            <mxPoint x="2170" y="635" as="targetPoint" />
          </mxGeometry>
        </mxCell>
        <mxCell id="j-Frhi-E09a5lXZqFMOe-62" value="Категория" style="text;html=1;align=center;verticalAlign=middle;resizable=0;points=[];autosize=1;strokeColor=none;fillColor=none;" parent="1" vertex="1">
          <mxGeometry x="2080" y="602" width="80" height="30" as="geometry" />
        </mxCell>
        <mxCell id="j-Frhi-E09a5lXZqFMOe-63" value="1.2" style="swimlane;fontStyle=1;align=center;verticalAlign=top;childLayout=stackLayout;horizontal=1;startSize=26;horizontalStack=0;resizeParent=1;resizeParentMax=0;resizeLast=0;collapsible=1;marginBottom=0;whiteSpace=wrap;html=1;" parent="1" vertex="1">
          <mxGeometry x="2170" y="592" width="160" height="86" as="geometry" />
        </mxCell>
        <mxCell id="j-Frhi-E09a5lXZqFMOe-64" value="Пройти тест" style="text;strokeColor=none;fillColor=none;align=left;verticalAlign=top;spacingLeft=4;spacingRight=4;overflow=hidden;rotatable=0;points=[[0,0.5],[1,0.5]];portConstraint=eastwest;whiteSpace=wrap;html=1;" parent="j-Frhi-E09a5lXZqFMOe-63" vertex="1">
          <mxGeometry y="26" width="160" height="26" as="geometry" />
        </mxCell>
        <mxCell id="j-Frhi-E09a5lXZqFMOe-65" value="" style="line;strokeWidth=1;fillColor=none;align=left;verticalAlign=middle;spacingTop=-1;spacingLeft=3;spacingRight=3;rotatable=0;labelPosition=right;points=[];portConstraint=eastwest;strokeColor=inherit;" parent="j-Frhi-E09a5lXZqFMOe-63" vertex="1">
          <mxGeometry y="52" width="160" height="8" as="geometry" />
        </mxCell>
        <mxCell id="j-Frhi-E09a5lXZqFMOe-66" value="Пользователь" style="text;strokeColor=none;fillColor=none;align=left;verticalAlign=top;spacingLeft=4;spacingRight=4;overflow=hidden;rotatable=0;points=[[0,0.5],[1,0.5]];portConstraint=eastwest;whiteSpace=wrap;html=1;" parent="j-Frhi-E09a5lXZqFMOe-63" vertex="1">
          <mxGeometry y="60" width="160" height="26" as="geometry" />
        </mxCell>
        <mxCell id="j-Frhi-E09a5lXZqFMOe-67" value="" style="endArrow=classic;html=1;rounded=0;entryX=0.5;entryY=0;entryDx=0;entryDy=0;exitX=0;exitY=0.5;exitDx=0;exitDy=0;" parent="1" source="j-Frhi-E09a5lXZqFMOe-59" target="j-Frhi-E09a5lXZqFMOe-63" edge="1">
          <mxGeometry width="50" height="50" relative="1" as="geometry">
            <mxPoint x="2060" y="455" as="sourcePoint" />
            <mxPoint x="2110" y="405" as="targetPoint" />
          </mxGeometry>
        </mxCell>
        <mxCell id="j-Frhi-E09a5lXZqFMOe-68" value="Тест по категории" style="text;html=1;align=center;verticalAlign=middle;resizable=0;points=[];autosize=1;strokeColor=none;fillColor=none;" parent="1" vertex="1">
          <mxGeometry x="2137" y="525" width="118" height="26" as="geometry" />
        </mxCell>
        <mxCell id="j-Frhi-E09a5lXZqFMOe-78" value="" style="endArrow=classic;html=1;rounded=0;" parent="1" edge="1">
          <mxGeometry width="50" height="50" relative="1" as="geometry">
            <mxPoint x="2330" y="634.47" as="sourcePoint" />
            <mxPoint x="2430" y="634.69" as="targetPoint" />
          </mxGeometry>
        </mxCell>
        <mxCell id="j-Frhi-E09a5lXZqFMOe-79" value="Пройденный&amp;nbsp;&lt;div&gt;тест&lt;/div&gt;" style="text;html=1;align=center;verticalAlign=middle;resizable=0;points=[];autosize=1;strokeColor=none;fillColor=none;" parent="1" vertex="1">
          <mxGeometry x="2330" y="592" width="100" height="40" as="geometry" />
        </mxCell>
        <mxCell id="j-Frhi-E09a5lXZqFMOe-80" value="1.3" style="swimlane;fontStyle=1;align=center;verticalAlign=top;childLayout=stackLayout;horizontal=1;startSize=26;horizontalStack=0;resizeParent=1;resizeParentMax=0;resizeLast=0;collapsible=1;marginBottom=0;whiteSpace=wrap;html=1;" parent="1" vertex="1">
          <mxGeometry x="2430" y="592" width="160" height="86" as="geometry" />
        </mxCell>
        <mxCell id="j-Frhi-E09a5lXZqFMOe-81" value="Сдать тест" style="text;strokeColor=none;fillColor=none;align=left;verticalAlign=top;spacingLeft=4;spacingRight=4;overflow=hidden;rotatable=0;points=[[0,0.5],[1,0.5]];portConstraint=eastwest;whiteSpace=wrap;html=1;" parent="j-Frhi-E09a5lXZqFMOe-80" vertex="1">
          <mxGeometry y="26" width="160" height="26" as="geometry" />
        </mxCell>
        <mxCell id="j-Frhi-E09a5lXZqFMOe-82" value="" style="line;strokeWidth=1;fillColor=none;align=left;verticalAlign=middle;spacingTop=-1;spacingLeft=3;spacingRight=3;rotatable=0;labelPosition=right;points=[];portConstraint=eastwest;strokeColor=inherit;" parent="j-Frhi-E09a5lXZqFMOe-80" vertex="1">
          <mxGeometry y="52" width="160" height="8" as="geometry" />
        </mxCell>
        <mxCell id="j-Frhi-E09a5lXZqFMOe-83" value="Пользователь" style="text;strokeColor=none;fillColor=none;align=left;verticalAlign=top;spacingLeft=4;spacingRight=4;overflow=hidden;rotatable=0;points=[[0,0.5],[1,0.5]];portConstraint=eastwest;whiteSpace=wrap;html=1;" parent="j-Frhi-E09a5lXZqFMOe-80" vertex="1">
          <mxGeometry y="60" width="160" height="26" as="geometry" />
        </mxCell>
        <mxCell id="j-Frhi-E09a5lXZqFMOe-84" value="D3" style="swimlane;whiteSpace=wrap;html=1;direction=north;" parent="1" vertex="1">
          <mxGeometry x="2440" y="468" width="140" height="50" as="geometry">
            <mxRectangle x="970" y="440" width="60" height="30" as="alternateBounds" />
          </mxGeometry>
        </mxCell>
        <mxCell id="j-Frhi-E09a5lXZqFMOe-85" value="Результаты тестов" style="text;html=1;align=center;verticalAlign=middle;resizable=0;points=[];autosize=1;strokeColor=none;fillColor=none;" parent="j-Frhi-E09a5lXZqFMOe-84" vertex="1">
          <mxGeometry x="20" y="7" width="130" height="30" as="geometry" />
        </mxCell>
        <mxCell id="j-Frhi-E09a5lXZqFMOe-86" value="Результат" style="text;html=1;align=center;verticalAlign=middle;resizable=0;points=[];autosize=1;strokeColor=none;fillColor=none;" parent="1" vertex="1">
          <mxGeometry x="2430" y="523" width="80" height="30" as="geometry" />
        </mxCell>
        <mxCell id="j-Frhi-E09a5lXZqFMOe-87" value="" style="endArrow=none;html=1;rounded=0;entryX=0.5;entryY=0;entryDx=0;entryDy=0;exitX=0;exitY=0.5;exitDx=0;exitDy=0;startArrow=classic;startFill=1;endFill=0;" parent="1" source="j-Frhi-E09a5lXZqFMOe-84" target="j-Frhi-E09a5lXZqFMOe-80" edge="1">
          <mxGeometry width="50" height="50" relative="1" as="geometry">
            <mxPoint x="2520" y="518" as="sourcePoint" />
            <mxPoint x="2361" y="792" as="targetPoint" />
          </mxGeometry>
        </mxCell>
        <mxCell id="8Ivu_JrJjytLl5I2viyp-7" value="" style="endArrow=classic;html=1;rounded=0;entryX=0;entryY=0.5;entryDx=0;entryDy=0;" parent="1" edge="1">
          <mxGeometry width="50" height="50" relative="1" as="geometry">
            <mxPoint x="629" y="969" as="sourcePoint" />
            <mxPoint x="698" y="969" as="targetPoint" />
          </mxGeometry>
        </mxCell>
        <mxCell id="8Ivu_JrJjytLl5I2viyp-8" value="Тест по категории" style="text;html=1;align=center;verticalAlign=middle;resizable=0;points=[];autosize=1;strokeColor=none;fillColor=none;" parent="1" vertex="1">
          <mxGeometry x="602" y="977" width="118" height="26" as="geometry" />
        </mxCell>
        <mxCell id="OgrMQWmxd8uOgY72ezWr-1" value="&lt;span style=&quot;font-family: Arial, Helvetica, &amp;quot;Arial Unicode MS&amp;quot;, sans-serif; font-size: 24px; text-align: start; white-space-collapse: preserve; background-color: rgba(255, 255, 255, 0.05);&quot;&gt;Сategory&lt;/span&gt;" style="swimlane;fontStyle=0;childLayout=stackLayout;horizontal=1;startSize=30;horizontalStack=0;resizeParent=1;resizeParentMax=0;resizeLast=0;collapsible=1;marginBottom=0;whiteSpace=wrap;html=1;fontSize=24;" parent="1" vertex="1">
          <mxGeometry x="-1286" y="710" width="320" height="90" as="geometry">
            <mxRectangle x="330" y="465" width="140" height="40" as="alternateBounds" />
          </mxGeometry>
        </mxCell>
        <mxCell id="OgrMQWmxd8uOgY72ezWr-2" value="&lt;span style=&quot;font-family: Arial, Helvetica, &amp;quot;Arial Unicode MS&amp;quot;, sans-serif; font-size: 24px; white-space-collapse: preserve; background-color: rgba(255, 255, 255, 0.05);&quot;&gt;IDСategory PK  &lt;/span&gt;" style="text;strokeColor=none;fillColor=none;align=left;verticalAlign=middle;spacingLeft=4;spacingRight=4;overflow=hidden;points=[[0,0.5],[1,0.5]];portConstraint=eastwest;rotatable=0;whiteSpace=wrap;html=1;fontSize=24;" parent="OgrMQWmxd8uOgY72ezWr-1" vertex="1">
          <mxGeometry y="30" width="320" height="30" as="geometry" />
        </mxCell>
        <mxCell id="OgrMQWmxd8uOgY72ezWr-3" value="&lt;span style=&quot;font-family: Arial, Helvetica, &amp;quot;Arial Unicode MS&amp;quot;, sans-serif; font-size: 24px; white-space-collapse: preserve; background-color: rgba(255, 255, 255, 0.05);&quot;&gt;NameСategory&lt;/span&gt;" style="text;strokeColor=none;fillColor=none;align=left;verticalAlign=middle;spacingLeft=4;spacingRight=4;overflow=hidden;points=[[0,0.5],[1,0.5]];portConstraint=eastwest;rotatable=0;whiteSpace=wrap;html=1;fontSize=24;" parent="OgrMQWmxd8uOgY72ezWr-1" vertex="1">
          <mxGeometry y="60" width="320" height="30" as="geometry" />
        </mxCell>
        <mxCell id="OgrMQWmxd8uOgY72ezWr-4" value="Test" style="swimlane;fontStyle=0;childLayout=stackLayout;horizontal=1;startSize=30;horizontalStack=0;resizeParent=1;resizeParentMax=0;resizeLast=0;collapsible=1;marginBottom=0;whiteSpace=wrap;html=1;fontSize=24;" parent="1" vertex="1">
          <mxGeometry x="-826" y="595" width="320" height="120" as="geometry" />
        </mxCell>
        <mxCell id="OgrMQWmxd8uOgY72ezWr-5" value="&lt;font style=&quot;font-size: 24px;&quot;&gt;ID&lt;span style=&quot;text-align: center; font-size: 24px;&quot;&gt;Test&lt;/span&gt;&lt;/font&gt;" style="text;strokeColor=none;fillColor=none;align=left;verticalAlign=middle;spacingLeft=4;spacingRight=4;overflow=hidden;points=[[0,0.5],[1,0.5]];portConstraint=eastwest;rotatable=0;whiteSpace=wrap;html=1;fontSize=24;" parent="OgrMQWmxd8uOgY72ezWr-4" vertex="1">
          <mxGeometry y="30" width="320" height="30" as="geometry" />
        </mxCell>
        <mxCell id="OgrMQWmxd8uOgY72ezWr-6" value="&lt;span style=&quot;font-family: Arial, Helvetica, &amp;quot;Arial Unicode MS&amp;quot;, sans-serif; font-size: 24px; white-space-collapse: preserve; background-color: rgba(255, 255, 255, 0.05);&quot;&gt;IDСategory&lt;/span&gt;" style="text;strokeColor=none;fillColor=none;align=left;verticalAlign=middle;spacingLeft=4;spacingRight=4;overflow=hidden;points=[[0,0.5],[1,0.5]];portConstraint=eastwest;rotatable=0;whiteSpace=wrap;html=1;fontSize=24;" parent="OgrMQWmxd8uOgY72ezWr-4" vertex="1">
          <mxGeometry y="60" width="320" height="30" as="geometry" />
        </mxCell>
        <mxCell id="OgrMQWmxd8uOgY72ezWr-7" value="&lt;span style=&quot;font-family: Arial, Helvetica, &amp;quot;Arial Unicode MS&amp;quot;, sans-serif; font-size: 24px; white-space-collapse: preserve; background-color: rgba(255, 255, 255, 0.05);&quot;&gt;NameTest&lt;/span&gt;" style="text;strokeColor=none;fillColor=none;align=left;verticalAlign=middle;spacingLeft=4;spacingRight=4;overflow=hidden;points=[[0,0.5],[1,0.5]];portConstraint=eastwest;rotatable=0;whiteSpace=wrap;html=1;fontSize=24;" parent="OgrMQWmxd8uOgY72ezWr-4" vertex="1">
          <mxGeometry y="90" width="320" height="30" as="geometry" />
        </mxCell>
        <mxCell id="OgrMQWmxd8uOgY72ezWr-8" value="&lt;span style=&quot;font-family: Arial, Helvetica, &amp;quot;Arial Unicode MS&amp;quot;, sans-serif; font-size: 24px; text-align: start; white-space-collapse: preserve; background-color: rgba(255, 255, 255, 0.05);&quot;&gt;Questions&lt;/span&gt;" style="swimlane;fontStyle=0;childLayout=stackLayout;horizontal=1;startSize=30;horizontalStack=0;resizeParent=1;resizeParentMax=0;resizeLast=0;collapsible=1;marginBottom=0;whiteSpace=wrap;html=1;fontSize=24;" parent="1" vertex="1">
          <mxGeometry x="-386" y="605" width="320" height="270" as="geometry" />
        </mxCell>
        <mxCell id="OgrMQWmxd8uOgY72ezWr-9" value="ID&lt;span style=&quot;font-family: Arial, Helvetica, &amp;quot;Arial Unicode MS&amp;quot;, sans-serif; font-size: 24px; white-space-collapse: preserve; background-color: rgba(255, 255, 255, 0.05);&quot;&gt;Questions&lt;/span&gt;" style="text;strokeColor=none;fillColor=none;align=left;verticalAlign=middle;spacingLeft=4;spacingRight=4;overflow=hidden;points=[[0,0.5],[1,0.5]];portConstraint=eastwest;rotatable=0;whiteSpace=wrap;html=1;fontSize=24;" parent="OgrMQWmxd8uOgY72ezWr-8" vertex="1">
          <mxGeometry y="30" width="320" height="30" as="geometry" />
        </mxCell>
        <mxCell id="OgrMQWmxd8uOgY72ezWr-10" value="&lt;span style=&quot;font-size: 24px;&quot;&gt;ID&lt;/span&gt;&lt;span style=&quot;border-color: var(--border-color); font-size: 24px; text-align: center;&quot;&gt;Test&lt;/span&gt;" style="text;strokeColor=none;fillColor=none;align=left;verticalAlign=middle;spacingLeft=4;spacingRight=4;overflow=hidden;points=[[0,0.5],[1,0.5]];portConstraint=eastwest;rotatable=0;whiteSpace=wrap;html=1;fontSize=24;" parent="OgrMQWmxd8uOgY72ezWr-8" vertex="1">
          <mxGeometry y="60" width="320" height="30" as="geometry" />
        </mxCell>
        <mxCell id="OgrMQWmxd8uOgY72ezWr-11" value="Text&lt;span style=&quot;font-family: Arial, Helvetica, &amp;quot;Arial Unicode MS&amp;quot;, sans-serif; font-size: 24px; white-space-collapse: preserve; background-color: rgba(255, 255, 255, 0.05);&quot;&gt;Questions&lt;/span&gt;" style="text;strokeColor=none;fillColor=none;align=left;verticalAlign=middle;spacingLeft=4;spacingRight=4;overflow=hidden;points=[[0,0.5],[1,0.5]];portConstraint=eastwest;rotatable=0;whiteSpace=wrap;html=1;fontSize=24;" parent="OgrMQWmxd8uOgY72ezWr-8" vertex="1">
          <mxGeometry y="90" width="320" height="30" as="geometry" />
        </mxCell>
        <mxCell id="OgrMQWmxd8uOgY72ezWr-12" value="&lt;span style=&quot;font-family: Arial, Helvetica, &amp;quot;Arial Unicode MS&amp;quot;, sans-serif; font-size: 24px; white-space-collapse: preserve; background-color: rgba(255, 255, 255, 0.05);&quot;&gt;Answer1&lt;/span&gt;" style="text;strokeColor=none;fillColor=none;align=left;verticalAlign=middle;spacingLeft=4;spacingRight=4;overflow=hidden;points=[[0,0.5],[1,0.5]];portConstraint=eastwest;rotatable=0;whiteSpace=wrap;html=1;fontSize=24;" parent="OgrMQWmxd8uOgY72ezWr-8" vertex="1">
          <mxGeometry y="120" width="320" height="30" as="geometry" />
        </mxCell>
        <mxCell id="OgrMQWmxd8uOgY72ezWr-13" value="&lt;span style=&quot;font-family: Arial, Helvetica, &amp;quot;Arial Unicode MS&amp;quot;, sans-serif; font-size: 24px; white-space-collapse: preserve; background-color: rgba(255, 255, 255, 0.05);&quot;&gt;Answer2&lt;/span&gt;" style="text;strokeColor=none;fillColor=none;align=left;verticalAlign=middle;spacingLeft=4;spacingRight=4;overflow=hidden;points=[[0,0.5],[1,0.5]];portConstraint=eastwest;rotatable=0;whiteSpace=wrap;html=1;fontSize=24;" parent="OgrMQWmxd8uOgY72ezWr-8" vertex="1">
          <mxGeometry y="150" width="320" height="30" as="geometry" />
        </mxCell>
        <mxCell id="OgrMQWmxd8uOgY72ezWr-14" value="&lt;span style=&quot;font-family: Arial, Helvetica, &amp;quot;Arial Unicode MS&amp;quot;, sans-serif; font-size: 24px; white-space-collapse: preserve; background-color: rgba(255, 255, 255, 0.05);&quot;&gt;Answer3&lt;/span&gt;" style="text;strokeColor=none;fillColor=none;align=left;verticalAlign=middle;spacingLeft=4;spacingRight=4;overflow=hidden;points=[[0,0.5],[1,0.5]];portConstraint=eastwest;rotatable=0;whiteSpace=wrap;html=1;fontSize=24;" parent="OgrMQWmxd8uOgY72ezWr-8" vertex="1">
          <mxGeometry y="180" width="320" height="30" as="geometry" />
        </mxCell>
        <mxCell id="OgrMQWmxd8uOgY72ezWr-15" value="&lt;span style=&quot;font-family: Arial, Helvetica, &amp;quot;Arial Unicode MS&amp;quot;, sans-serif; white-space-collapse: preserve; background-color: rgba(255, 255, 255, 0.05);&quot;&gt;Answer4&lt;/span&gt;" style="text;strokeColor=none;fillColor=none;align=left;verticalAlign=middle;spacingLeft=4;spacingRight=4;overflow=hidden;points=[[0,0.5],[1,0.5]];portConstraint=eastwest;rotatable=0;whiteSpace=wrap;html=1;fontSize=24;" parent="OgrMQWmxd8uOgY72ezWr-8" vertex="1">
          <mxGeometry y="210" width="320" height="30" as="geometry" />
        </mxCell>
        <mxCell id="OgrMQWmxd8uOgY72ezWr-16" value="&lt;span style=&quot;background-color: rgba(255, 255, 255, 0.05);&quot;&gt;&lt;font face=&quot;Arial, Helvetica, Arial Unicode MS, sans-serif&quot;&gt;&lt;span style=&quot;white-space-collapse: preserve;&quot;&gt;CorrectAnswer&lt;/span&gt;&lt;/font&gt;&lt;/span&gt;" style="text;strokeColor=none;fillColor=none;align=left;verticalAlign=middle;spacingLeft=4;spacingRight=4;overflow=hidden;points=[[0,0.5],[1,0.5]];portConstraint=eastwest;rotatable=0;whiteSpace=wrap;html=1;fontSize=24;" parent="OgrMQWmxd8uOgY72ezWr-8" vertex="1">
          <mxGeometry y="240" width="320" height="30" as="geometry" />
        </mxCell>
        <mxCell id="OgrMQWmxd8uOgY72ezWr-17" value="&lt;span style=&quot;font-family: Arial, Helvetica, &amp;quot;Arial Unicode MS&amp;quot;, sans-serif; font-size: 24px; text-align: left; white-space-collapse: preserve; background-color: rgba(255, 255, 255, 0.05);&quot;&gt;AnswerUser&lt;/span&gt;" style="swimlane;fontStyle=0;childLayout=stackLayout;horizontal=1;startSize=30;horizontalStack=0;resizeParent=1;resizeParentMax=0;resizeLast=0;collapsible=1;marginBottom=0;whiteSpace=wrap;html=1;fontSize=24;" parent="1" vertex="1">
          <mxGeometry x="-826" y="300" width="320" height="150" as="geometry" />
        </mxCell>
        <mxCell id="OgrMQWmxd8uOgY72ezWr-18" value="&lt;span style=&quot;font-family: Arial, Helvetica, &amp;quot;Arial Unicode MS&amp;quot;, sans-serif; font-size: 24px; white-space-collapse: preserve; background-color: rgba(255, 255, 255, 0.05);&quot;&gt;IDAnswerUser&lt;/span&gt;" style="text;strokeColor=none;fillColor=none;align=left;verticalAlign=middle;spacingLeft=4;spacingRight=4;overflow=hidden;points=[[0,0.5],[1,0.5]];portConstraint=eastwest;rotatable=0;whiteSpace=wrap;html=1;fontSize=24;" parent="OgrMQWmxd8uOgY72ezWr-17" vertex="1">
          <mxGeometry y="30" width="320" height="30" as="geometry" />
        </mxCell>
        <mxCell id="OgrMQWmxd8uOgY72ezWr-19" value="&lt;span style=&quot;font-family: Arial, Helvetica, &amp;quot;Arial Unicode MS&amp;quot;, sans-serif; font-size: 24px; white-space-collapse: preserve; background-color: rgba(255, 255, 255, 0.05);&quot;&gt;IDTest&lt;/span&gt;" style="text;strokeColor=none;fillColor=none;align=left;verticalAlign=middle;spacingLeft=4;spacingRight=4;overflow=hidden;points=[[0,0.5],[1,0.5]];portConstraint=eastwest;rotatable=0;whiteSpace=wrap;html=1;fontSize=24;" parent="OgrMQWmxd8uOgY72ezWr-17" vertex="1">
          <mxGeometry y="60" width="320" height="30" as="geometry" />
        </mxCell>
        <mxCell id="OgrMQWmxd8uOgY72ezWr-20" value="&lt;div style=&quot;text-align: center; font-size: 24px;&quot;&gt;&lt;span style=&quot;font-size: 24px; background-color: initial;&quot;&gt;IDUser&lt;/span&gt;&lt;/div&gt;" style="text;strokeColor=none;fillColor=none;align=left;verticalAlign=middle;spacingLeft=4;spacingRight=4;overflow=hidden;points=[[0,0.5],[1,0.5]];portConstraint=eastwest;rotatable=0;whiteSpace=wrap;html=1;fontSize=24;" parent="OgrMQWmxd8uOgY72ezWr-17" vertex="1">
          <mxGeometry y="90" width="320" height="30" as="geometry" />
        </mxCell>
        <mxCell id="OgrMQWmxd8uOgY72ezWr-21" value="Results" style="text;strokeColor=none;fillColor=none;align=left;verticalAlign=middle;spacingLeft=4;spacingRight=4;overflow=hidden;points=[[0,0.5],[1,0.5]];portConstraint=eastwest;rotatable=0;whiteSpace=wrap;html=1;fontSize=24;" parent="OgrMQWmxd8uOgY72ezWr-17" vertex="1">
          <mxGeometry y="120" width="320" height="30" as="geometry" />
        </mxCell>
        <mxCell id="OgrMQWmxd8uOgY72ezWr-22" value="&lt;span style=&quot;font-family: Arial, Helvetica, &amp;quot;Arial Unicode MS&amp;quot;, sans-serif; font-size: 24px; text-align: left; white-space-collapse: preserve; background-color: rgba(255, 255, 255, 0.05);&quot;&gt;User&lt;/span&gt;" style="swimlane;fontStyle=0;childLayout=stackLayout;horizontal=1;startSize=30;horizontalStack=0;resizeParent=1;resizeParentMax=0;resizeLast=0;collapsible=1;marginBottom=0;whiteSpace=wrap;html=1;fontSize=24;" parent="1" vertex="1">
          <mxGeometry x="-386" y="300" width="320" height="180" as="geometry" />
        </mxCell>
        <mxCell id="OgrMQWmxd8uOgY72ezWr-23" value="&lt;span style=&quot;text-align: center;&quot;&gt;IDUser&lt;/span&gt;" style="text;strokeColor=none;fillColor=none;align=left;verticalAlign=middle;spacingLeft=4;spacingRight=4;overflow=hidden;points=[[0,0.5],[1,0.5]];portConstraint=eastwest;rotatable=0;whiteSpace=wrap;html=1;fontSize=24;" parent="OgrMQWmxd8uOgY72ezWr-22" vertex="1">
          <mxGeometry y="30" width="320" height="30" as="geometry" />
        </mxCell>
        <mxCell id="OgrMQWmxd8uOgY72ezWr-24" value="&lt;div style=&quot;text-align: center; font-size: 24px;&quot;&gt;&lt;span style=&quot;font-size: 24px; background-color: initial;&quot;&gt;UserName&lt;/span&gt;&lt;/div&gt;" style="text;strokeColor=none;fillColor=none;align=left;verticalAlign=middle;spacingLeft=4;spacingRight=4;overflow=hidden;points=[[0,0.5],[1,0.5]];portConstraint=eastwest;rotatable=0;whiteSpace=wrap;html=1;fontSize=24;" parent="OgrMQWmxd8uOgY72ezWr-22" vertex="1">
          <mxGeometry y="60" width="320" height="30" as="geometry" />
        </mxCell>
        <mxCell id="OgrMQWmxd8uOgY72ezWr-25" value="Email" style="text;strokeColor=none;fillColor=none;align=left;verticalAlign=middle;spacingLeft=4;spacingRight=4;overflow=hidden;points=[[0,0.5],[1,0.5]];portConstraint=eastwest;rotatable=0;whiteSpace=wrap;html=1;fontSize=24;" parent="OgrMQWmxd8uOgY72ezWr-22" vertex="1">
          <mxGeometry y="90" width="320" height="30" as="geometry" />
        </mxCell>
        <mxCell id="OgrMQWmxd8uOgY72ezWr-26" value="&lt;span style=&quot;font-family: Arial, Helvetica, &amp;quot;Arial Unicode MS&amp;quot;, sans-serif; font-size: 24px; white-space-collapse: preserve; background-color: rgba(255, 255, 255, 0.05);&quot;&gt;Password&lt;/span&gt;" style="text;strokeColor=none;fillColor=none;align=left;verticalAlign=middle;spacingLeft=4;spacingRight=4;overflow=hidden;points=[[0,0.5],[1,0.5]];portConstraint=eastwest;rotatable=0;whiteSpace=wrap;html=1;fontSize=24;" parent="OgrMQWmxd8uOgY72ezWr-22" vertex="1">
          <mxGeometry y="120" width="320" height="30" as="geometry" />
        </mxCell>
        <mxCell id="OgrMQWmxd8uOgY72ezWr-27" value="&lt;span style=&quot;font-family: Arial, Helvetica, &amp;quot;Arial Unicode MS&amp;quot;, sans-serif; font-size: 24px; white-space-collapse: preserve; background-color: rgba(255, 255, 255, 0.05);&quot;&gt;Role&lt;/span&gt;" style="text;strokeColor=none;fillColor=none;align=left;verticalAlign=middle;spacingLeft=4;spacingRight=4;overflow=hidden;points=[[0,0.5],[1,0.5]];portConstraint=eastwest;rotatable=0;whiteSpace=wrap;html=1;fontSize=24;" parent="OgrMQWmxd8uOgY72ezWr-22" vertex="1">
          <mxGeometry y="150" width="320" height="30" as="geometry" />
        </mxCell>
        <mxCell id="OgrMQWmxd8uOgY72ezWr-28" style="edgeStyle=orthogonalEdgeStyle;rounded=0;orthogonalLoop=1;jettySize=auto;html=1;exitX=1;exitY=0.5;exitDx=0;exitDy=0;entryX=0;entryY=0.5;entryDx=0;entryDy=0;endArrow=none;endFill=0;" parent="1" source="OgrMQWmxd8uOgY72ezWr-2" target="OgrMQWmxd8uOgY72ezWr-6" edge="1">
          <mxGeometry relative="1" as="geometry" />
        </mxCell>
        <mxCell id="OgrMQWmxd8uOgY72ezWr-29" style="edgeStyle=orthogonalEdgeStyle;rounded=0;orthogonalLoop=1;jettySize=auto;html=1;exitX=1;exitY=0.5;exitDx=0;exitDy=0;entryX=0;entryY=0.5;entryDx=0;entryDy=0;endArrow=none;endFill=0;" parent="1" source="OgrMQWmxd8uOgY72ezWr-5" target="OgrMQWmxd8uOgY72ezWr-10" edge="1">
          <mxGeometry relative="1" as="geometry" />
        </mxCell>
        <mxCell id="OgrMQWmxd8uOgY72ezWr-30" value="1" style="text;html=1;align=center;verticalAlign=middle;resizable=0;points=[];autosize=1;strokeColor=none;fillColor=none;fontSize=24;" parent="1" vertex="1">
          <mxGeometry x="-966" y="720" width="40" height="40" as="geometry" />
        </mxCell>
        <mxCell id="OgrMQWmxd8uOgY72ezWr-31" value="M" style="text;html=1;align=center;verticalAlign=middle;resizable=0;points=[];autosize=1;strokeColor=none;fillColor=none;fontSize=24;" parent="1" vertex="1">
          <mxGeometry x="-866" y="680" width="40" height="40" as="geometry" />
        </mxCell>
        <mxCell id="OgrMQWmxd8uOgY72ezWr-32" value="1" style="text;html=1;align=center;verticalAlign=middle;resizable=0;points=[];autosize=1;strokeColor=none;fillColor=none;fontSize=24;" parent="1" vertex="1">
          <mxGeometry x="-509" y="635" width="40" height="40" as="geometry" />
        </mxCell>
        <mxCell id="OgrMQWmxd8uOgY72ezWr-33" value="M" style="text;html=1;align=center;verticalAlign=middle;resizable=0;points=[];autosize=1;strokeColor=none;fillColor=none;fontSize=24;" parent="1" vertex="1">
          <mxGeometry x="-426" y="635" width="40" height="40" as="geometry" />
        </mxCell>
        <mxCell id="OgrMQWmxd8uOgY72ezWr-34" style="edgeStyle=orthogonalEdgeStyle;rounded=0;orthogonalLoop=1;jettySize=auto;html=1;exitX=0;exitY=0.5;exitDx=0;exitDy=0;entryX=1;entryY=0.5;entryDx=0;entryDy=0;endArrow=none;endFill=0;" parent="1" source="OgrMQWmxd8uOgY72ezWr-23" target="OgrMQWmxd8uOgY72ezWr-20" edge="1">
          <mxGeometry relative="1" as="geometry" />
        </mxCell>
        <mxCell id="OgrMQWmxd8uOgY72ezWr-35" style="edgeStyle=orthogonalEdgeStyle;rounded=0;orthogonalLoop=1;jettySize=auto;html=1;exitX=0;exitY=0.5;exitDx=0;exitDy=0;entryX=0;entryY=0.5;entryDx=0;entryDy=0;endArrow=none;endFill=0;" parent="1" source="OgrMQWmxd8uOgY72ezWr-19" target="OgrMQWmxd8uOgY72ezWr-5" edge="1">
          <mxGeometry relative="1" as="geometry">
            <mxPoint x="-856" y="650" as="targetPoint" />
            <Array as="points">
              <mxPoint x="-896" y="375" />
              <mxPoint x="-896" y="640" />
            </Array>
          </mxGeometry>
        </mxCell>
        <mxCell id="OgrMQWmxd8uOgY72ezWr-36" value="M" style="text;html=1;align=center;verticalAlign=middle;resizable=0;points=[];autosize=1;strokeColor=none;fillColor=none;fontSize=24;" parent="1" vertex="1">
          <mxGeometry x="-866" y="330" width="40" height="40" as="geometry" />
        </mxCell>
        <mxCell id="OgrMQWmxd8uOgY72ezWr-37" value="1" style="text;html=1;align=center;verticalAlign=middle;resizable=0;points=[];autosize=1;strokeColor=none;fillColor=none;fontSize=24;" parent="1" vertex="1">
          <mxGeometry x="-866" y="605" width="40" height="40" as="geometry" />
        </mxCell>
        <mxCell id="OgrMQWmxd8uOgY72ezWr-38" value="M" style="text;html=1;align=center;verticalAlign=middle;resizable=0;points=[];autosize=1;strokeColor=none;fillColor=none;fontSize=24;" parent="1" vertex="1">
          <mxGeometry x="-506" y="360" width="40" height="40" as="geometry" />
        </mxCell>
        <mxCell id="OgrMQWmxd8uOgY72ezWr-39" value="1" style="text;html=1;align=center;verticalAlign=middle;resizable=0;points=[];autosize=1;strokeColor=none;fillColor=none;fontSize=24;" parent="1" vertex="1">
          <mxGeometry x="-426" y="300" width="40" height="40" as="geometry" />
        </mxCell>
        <mxCell id="OgrMQWmxd8uOgY72ezWr-80" value="" style="endArrow=classic;html=1;rounded=0;entryX=0.5;entryY=1;entryDx=0;entryDy=0;" parent="1" target="j-Frhi-E09a5lXZqFMOe-13" edge="1">
          <mxGeometry width="50" height="50" relative="1" as="geometry">
            <mxPoint x="758" y="1140" as="sourcePoint" />
            <mxPoint x="683" y="1107" as="targetPoint" />
          </mxGeometry>
        </mxCell>
        <mxCell id="OgrMQWmxd8uOgY72ezWr-81" value="" style="endArrow=classic;html=1;rounded=0;entryX=0;entryY=0.5;entryDx=0;entryDy=0;" parent="1" edge="1">
          <mxGeometry width="50" height="50" relative="1" as="geometry">
            <mxPoint x="550" y="519.09" as="sourcePoint" />
            <mxPoint x="680" y="519.09" as="targetPoint" />
          </mxGeometry>
        </mxCell>
        <mxCell id="OgrMQWmxd8uOgY72ezWr-82" value="Тест" style="text;html=1;align=center;verticalAlign=middle;resizable=0;points=[];autosize=1;strokeColor=none;fillColor=none;" parent="1" vertex="1">
          <mxGeometry x="565" y="489.09000000000003" width="50" height="30" as="geometry" />
        </mxCell>
      </root>
    </mxGraphModel>
  </diagram>
</mxfile>
